<?xml version="1.0" ?><svg xmlns="http://www.w3.org/2000/svg" xmlns:xlink="http://www.w3.org/1999/xlink" id="Layer_1" style="enable-background:new 0 0 66.722069 70.039368;" version="1.1" viewBox="0 0 66.722069 70.039368" xml:space="preserve"><style type="text/css">
	.st0{opacity:0.5;fill:#231F20;enable-background:new    ;}
	.st1{fill:#FFFFFF;}
	.st2{fill:#22093A;stroke:#22093A;stroke-linecap:round;stroke-linejoin:round;}
	.st3{fill:#FCC707;stroke:#22093A;stroke-linecap:round;stroke-linejoin:round;}
	.st4{fill:none;stroke:#22093A;stroke-linecap:round;stroke-linejoin:round;}
	.st5{fill:#35CCAD;stroke:#22093A;stroke-linecap:round;stroke-linejoin:round;}
	.st6{fill:none;stroke:#FFFFFF;stroke-linecap:round;stroke-linejoin:round;}
</style><g id="Layer_2_00000082359568238610011570000004292614222187828120_"><g id="Layer_1-2"><path class="st0" d="M62.053879,1.89435c-0.619987-0.537492-1.371449-0.900922-2.177731-1.05322    c-2.829102-0.5127-5.864262,0.99219-8.337891,4.125c-0.782841,0.99121-2.951111,4.03851-2.775822,7.033999    c-0.469421-1.92944-1.363522-3.93206-3.138241-4.8836c-0.743721-0.63575-1.670025-1.019061-2.645512-1.09473    c-1.749859-0.161726-3.472332,0.518405-4.639648,1.832c-1.270729,1.667462-1.917522,3.727218-1.828121,5.82178    c-1.094849,0.234212-2.143246,0.648467-3.102482,1.22589c-1.423466-2.329565-3.292103-4.355744-5.49909-5.962709    c-3.216789-2.69433-6.125-3.0332-8.005861-2.83691c-1.959942,0.138142-3.736767,1.201917-4.78418,2.86426    c-2.19629,3.60791-0.2041,8.70215,1.39649,12.79492c0.165001,0.4209,0.320311,0.816891,0.456051,1.178709    c0.171881,0.457001,0.370119,1.07666,0.584,1.80127c-1.632914-0.147703-3.275187,0.152796-4.75,0.869141    c-3.093282,1.403053-5.265361,4.277414-5.770512,7.63625c-1.030105,0.345116-1.976765,0.901596-2.77933,1.633793    C1.65447,37.245419,0.64568,41.223,1.257,46.702942c0.41211,3.688999,2.21,12.833,9.97754,18.35157    c4.265527,3.388969,9.594748,5.155289,15.04,4.984863c1.432533-0.003159,2.863552-0.093323,4.285151-0.269997    C41.800999,68.398262,48.98748,61.51984,50.79607,50.4007c1.169918-7.188,0.259769-12.908211-2.632809-16.541508    c-0.764744-0.961052-1.691002-1.781597-2.737263-2.424862c0.861053-0.219238,1.643089-0.676237,2.256771-1.31879    c1.359379-1.42383,1.81543-3.653811,1.896481-5.724121c1.073639-0.235268,2.113605-0.603996,3.09565-1.097589    c0.699001,6.15979,2.912472,7.90856,4.236389,8.569761c1.022907,0.80175,2.285328,1.236942,3.584999,1.23584    c0.116203,0,0.232414-0.003422,0.348629-0.010262c5.112297-0.29834,5.591797-7.94335,5.772461-10.82177    C66.733566,20.408001,67.51873,5.096,62.053879,1.89435z M40.070492,29.79718c-0.1045-0.01318-0.209-0.02392-0.314461-0.03076    c-0.084-0.005369-0.168941-0.01025-0.253899-0.01416c-0.076851-0.291321-0.158329-0.570999-0.23719-0.8573    c0.244495,0.330164,0.523724,0.633129,0.83289,0.90369L40.070492,29.79718z"/><path class="st1" d="M60.97007,1.15175c-0.619991-0.537493-1.371452-0.900923-2.177738-1.05322    c-2.829102-0.5127-5.864262,0.99218-8.337891,4.125c-0.782841,0.99121-2.951111,4.038509-2.775822,7.034    c-0.469421-1.92944-1.363522-3.93206-3.138241-4.8836c-0.743721-0.635755-1.670025-1.019065-2.645512-1.09473    c-1.749859-0.161726-3.472332,0.518405-4.639648,1.832c-1.270733,1.667468-1.917522,3.727231-1.828117,5.821799    c-1.094849,0.234207-2.143246,0.648463-3.102478,1.22589c-1.423466-2.329565-3.292103-4.355744-5.49909-5.962709    c-3.216789-2.69433-6.125-3.0332-8.00585-2.83691c-1.959944,0.138141-3.736771,1.201916-4.784184,2.86426    c-2.19629,3.60791-0.20411,8.70215,1.39648,12.79492c0.165,0.4209,0.32031,0.816891,0.45605,1.178709    c0.171881,0.457001,0.370119,1.07666,0.584,1.80127c-1.632914-0.147707-3.275188,0.152792-4.75,0.869141    c-3.09328,1.403048-5.265361,4.277401-5.770519,7.63623c-1.030095,0.345119-1.976743,0.9016-2.7793,1.633789    c-2.60156,2.365231-3.61035,6.34277-2.99902,11.82275c0.41211,3.688999,2.21,12.833,9.97754,18.351566    c4.265527,3.388969,9.594749,5.155289,15.040001,4.984863c1.432535-0.003159,2.863558-0.093323,4.28516-0.269997    c11.241211-1.371094,18.427731-8.249512,20.23632-19.368652c1.16993-7.188,0.259769-12.908211-2.632809-16.541512    c-0.76474-0.961048-1.690987-1.781591-2.73724-2.42486c0.86108-0.219233,1.643139-0.676237,2.256836-1.318808    c1.359379-1.42383,1.81543-3.653811,1.896488-5.724121c1.073635-0.235273,2.113598-0.604006,3.095638-1.097599    c0.699001,6.15979,2.912472,7.908569,4.236389,8.569771c1.022907,0.801752,2.285328,1.236942,3.584999,1.23584    c0.116215,0,0.232426-0.003422,0.348629-0.010262c5.112309-0.29834,5.591801-7.943359,5.772457-10.82177    C65.64975,19.665421,66.434914,4.35341,60.97007,1.15175z M38.986671,29.054581c-0.104488-0.01318-0.209-0.02392-0.314461-0.03076    c-0.084-0.005369-0.168941-0.01025-0.253899-0.01416c-0.076851-0.291321-0.158329-0.570999-0.237179-0.8573    c0.244492,0.330164,0.52372,0.633129,0.832882,0.90369L38.986671,29.054581z"/><path class="st2" d="M38.836819,32.551739c-1.052921-0.068359-1.575851,0.865589-2.890911,1.133289l-0.000999-0.003239    C32.148239,16.14822,25.374189,9.17447,20.319691,9.70346c-5.05444,0.529-1.49115,8.211301-0.01984,12.126    c1.08338,2.8825,2.77075,10.286999,2.77075,10.286999s-3.789551-5.56518-8.71032-3.22522s-3.81848,7.598763-3.81848,7.598763    s-7.02832-1.470402-5.754,9.944698c0.92419,8.27869,6.4024,21.298714,24.266911,19.118904    c9.743-1.188843,15.643551-6.853882,17.206001-16.456612C47.733452,40.045872,45.65237,32.99437,38.836819,32.551739z"/><path class="st3" d="M38.189709,43.071861c0,0-11.94525,3.917301-12.31436-2.06768s8.049131-8.780792,12.572168-8.487    c6.815559,0.442631,8.153,6.666519,6.680271,15.717701c-1.562439,9.602669-7.463001,15.26775-17.205999,16.456593    C10.05731,66.871284,4.57909,53.851273,3.65489,45.572556c-1.27433-11.415119,5.754-9.944691,5.754-9.944691    s-1.102369-5.258865,3.81841-7.598866s8.71034,3.22522,8.71034,3.22522s-1.687401-7.40448-2.77076-10.286999    c-1.4713-3.91473-5.034599-11.597,0.019859-12.126s11.828539,6.44479,15.62517,23.978298"/><path class="st4" d="M9.40881,35.627819c2.43933,0.519508,7.29509,2.116371,7.7812,6.0769    c0.684999,5.580742-6.92566,4.41338-6.92566,4.41338"/><path class="st4" d="M21.937639,31.254259c1.501591,2.556742,4.607,7.758619,0.631001,9.607561    c-3.53689,1.644749-5.478001,0.032791-5.478001,0.032791"/><path class="st2" d="M42.435101,9.30962c2.211731,0.16055,2.324291,6.94108,2.324291,6.94108s5.950409-2.03386,6.650139,0.966551    s-6.542179,3.418051-6.542179,3.418051s0.840698,6.92293-1.838711,6.72262s-2.413521-6.595551-2.413521-6.595551    s-6.238522,0.89049-6.6535-0.91444c-0.755482-3.28591,6.033482-3.28331,6.033482-3.28331S38.536388,9.0266,42.435101,9.30962z"/><path class="st2" d="M58.96254,4.0819c3.77634,0.68373,4.44017,24.547001,0.59737,24.77116    c-5.490829,0.32025-3.544159-16.239201-3.544159-16.239201s-2.998428,1.67275-3.928768-0.44845S55.483879,3.45207,58.96254,4.0819    z"/><path class="st5" d="M41.643581,8.7707c2.211731,0.16056,2.324291,6.94109,2.324291,6.94109s5.950409-2.03386,6.650131,0.966551    s-6.542171,3.418051-6.542171,3.418051s0.840698,6.92293-1.838711,6.72262s-2.413521-6.595551-2.413521-6.595551    s-6.238522,0.89049-6.6535-0.91444c-0.755482-3.28591,6.03347-3.283319,6.03347-3.283319S37.744869,8.48769,41.643581,8.7707z"/><path class="st5" d="M58.171001,3.543c3.776348,0.68373,4.44017,24.547001,0.597382,24.77116    c-5.490829,0.32025-3.544159-16.23921-3.544159-16.23921s-2.998428,1.67276-3.928768-0.44844S54.69236,2.91316,58.171001,3.543z"/><path class="st6" d="M52.97263,10.0749c0.659363-1.560114,1.673573-2.944907,2.962002-4.0443"/><path class="st6" d="M56.856869,19.659189c-0.131001,1.51351,0.414001,5.35309,1.452999,5.9004"/><path class="st6" d="M41.206421,10.73445c-0.377998,0.26079-0.8009,1.3387-0.33564,4.12247"/><path class="st6" d="M19.52084,31.628481c0.771854,0.799456,1.393536,1.731287,1.83532,2.750952    c1.70886,3.816452,0.230391,4.983261,0.230391,4.983261"/><path class="st6" d="M16.8587,29.964001c0.516665,0.142078,1.006271,0.368631,1.448999,0.67049"/><path class="st6" d="M13.04225,39.524269c1.481,0.51265,2.67721,2.90506,1.59493,3.930382"/><path class="st6" d="M18.823,12.51629c0.04431,1.44321,0.82366,3.909751,2.478781,7.562659"/><path class="st6" d="M5.58022,41.859711c-0.372077,2.96257,0.120854,5.969521,1.41935,8.65823"/><path class="st6" d="M7.51693,52.664242c0.23997,0.661381,0.545276,1.297192,0.91139,1.897999"/></g></g></svg>